<svg width="296" height="296" viewBox="0 0 296 296" fill="none" xmlns="http://www.w3.org/2000/svg">
<g clip-path="url(#clip0_796_1707)">
<path d="M148 295.5C229.74 295.5 295.5 229.74 295.5 148C295.5 66.2599 229.74 0.5 148 0.5C66.2599 0.5 0.5 66.2599 0.5 148C0.5 229.74 66.2599 295.5 148 295.5Z" fill="#2775CA"/>
<path d="M188.562 171.354C188.562 149.844 175.656 142.469 149.844 139.396C131.406 136.937 127.719 132.021 127.719 123.416C127.719 114.811 133.865 109.281 146.156 109.281C157.219 109.281 163.365 112.969 166.437 122.187C167.053 124.031 168.896 125.26 170.74 125.26H180.572C183.031 125.26 184.875 123.416 184.875 120.959V120.344C182.416 106.822 171.354 96.3748 157.219 95.1462V80.3962C157.219 77.9373 155.375 76.0936 152.303 75.4785H143.084C140.625 75.4785 138.781 77.3223 138.166 80.3962V94.5311C119.729 96.9899 108.053 109.281 108.053 124.646C108.053 144.927 120.344 152.916 146.156 155.99C163.365 159.062 168.896 162.75 168.896 172.584C168.896 182.417 160.291 189.177 148.615 189.177C132.635 189.177 127.104 182.416 125.26 173.197C124.646 170.74 122.803 169.51 120.959 169.51H110.51C108.053 169.51 106.209 171.354 106.209 173.812V174.427C108.666 189.791 118.5 200.854 138.781 203.927V218.677C138.781 221.135 140.625 222.979 143.697 223.594H152.916C155.375 223.594 157.219 221.75 157.834 218.677V203.927C176.271 200.854 188.562 187.947 188.562 171.354Z" fill="white"/>
<path d="M116.656 235.885C68.7188 218.678 44.1349 165.209 61.9589 117.885C71.1776 92.0726 91.4588 72.4064 116.656 63.1877C119.115 61.959 120.344 60.1152 120.344 57.0413V48.4377C120.344 45.9788 119.115 44.1351 116.656 43.5215C116.041 43.5215 114.813 43.5215 114.197 44.1351C55.8125 62.5726 23.8537 124.646 42.2912 183.031C53.3537 217.448 79.7813 243.875 114.197 254.938C116.656 256.166 119.115 254.938 119.729 252.479C120.344 251.865 120.344 251.25 120.344 250.021V241.416C120.344 239.573 118.5 237.115 116.656 235.885ZM181.803 44.1351C179.344 42.9064 176.885 44.1351 176.271 46.5939C175.656 47.209 175.656 47.8226 175.656 49.0527V57.6564C175.656 60.1152 177.5 62.5726 179.344 63.8027C227.281 81.0101 251.865 134.479 234.041 181.803C224.822 207.615 204.541 227.281 179.344 236.5C176.885 237.729 175.656 239.573 175.656 242.646V251.25C175.656 253.709 176.885 255.553 179.344 256.166C179.959 256.166 181.188 256.166 181.803 255.553C240.188 237.115 272.146 175.041 253.709 116.656C242.646 81.6252 215.604 55.1976 181.803 44.1351Z" fill="white"/>
<g clip-path="url(#clip1_796_1707)">
<path d="M236.109 125.002L235.035 128.648V234.443L236.109 235.514L285.217 206.486L236.109 125.002Z" fill="#343434"/>
<path d="M236.109 125.002L187 206.486L236.109 235.514V184.164V125.002Z" fill="#8C8C8C"/>
<path d="M236.109 244.812L235.504 245.549V283.235L236.109 285.001L285.247 215.799L236.109 244.812Z" fill="#3C3C3B"/>
<path d="M236.109 285.001V244.812L187 215.799L236.109 285.001Z" fill="#8C8C8C"/>
<path d="M236.109 235.514L285.217 206.486L236.109 184.164V235.514Z" fill="#141414"/>
<path d="M187 206.486L236.109 235.514V184.164L187 206.486Z" fill="#393939"/>
</g>
</g>
<defs>
<clipPath id="clip0_796_1707">
<rect width="295" height="295" fill="white" transform="translate(0.5 0.5)"/>
</clipPath>
<clipPath id="clip1_796_1707">
<rect width="98.2466" height="160" fill="white" transform="translate(187 125)"/>
</clipPath>
</defs>
</svg>
