<svg width="340" height="296" viewBox="0 0 340 296" fill="none" xmlns="http://www.w3.org/2000/svg">
<g clip-path="url(#clip0_796_1680)">
<path fill-rule="evenodd" clip-rule="evenodd" d="M62.15 1.45019L0.259998 131.45C0.0244886 131.934 -0.0501428 132.48 0.0470178 133.009C0.144178 133.538 0.408034 134.022 0.799998 134.39L167.95 294.56C168.425 295.016 169.057 295.27 169.715 295.27C170.373 295.27 171.005 295.016 171.48 294.56L338.63 134.4C339.022 134.032 339.286 133.548 339.383 133.019C339.48 132.49 339.406 131.944 339.17 131.46L277.28 1.46019C277.08 1.0236 276.759 0.653747 276.355 0.394842C275.95 0.135937 275.48 -0.00107099 275 0.000193524H64.45C63.9676 -0.0058081 63.4938 0.127899 63.0856 0.385186C62.6775 0.642473 62.3526 1.01235 62.15 1.45019Z" fill="#50AF95"/>
<path fill-rule="evenodd" clip-rule="evenodd" d="M191.19 144.8C189.99 144.89 183.79 145.26 169.96 145.26C158.96 145.26 151.15 144.93 148.41 144.8C105.9 142.93 74.17 135.53 74.17 126.67C74.17 117.81 105.9 110.42 148.41 108.52V137.43C151.19 137.63 159.15 138.1 170.15 138.1C183.35 138.1 189.96 137.55 191.15 137.44V108.54C233.57 110.43 265.23 117.83 265.23 126.67C265.23 135.51 233.58 142.91 191.15 144.79L191.19 144.8ZM191.19 105.55V79.6805H250.39V40.2305H89.21V79.6805H148.4V105.54C100.29 107.75 64.11 117.28 64.11 128.7C64.11 140.12 100.29 149.64 148.4 151.86V234.76H191.18V151.83C239.18 149.62 275.3 140.1 275.3 128.69C275.3 117.28 239.21 107.76 191.18 105.54L191.19 105.55Z" fill="white"/>
<g clip-path="url(#clip1_796_1680)">
<mask id="mask0_796_1680" style="mask-type:luminance" maskUnits="userSpaceOnUse" x="177" y="133" width="160" height="161">
<path d="M337 133.5H177V293.5H337V133.5Z" fill="white"/>
</mask>
<g mask="url(#mask0_796_1680)">
<path d="M257 293.5C301.183 293.5 337 257.683 337 213.5C337 169.317 301.183 133.5 257 133.5C212.817 133.5 177 169.317 177 213.5C177 257.683 212.817 293.5 257 293.5Z" fill="#0088CC"/>
<path fill-rule="evenodd" clip-rule="evenodd" d="M234.714 186.359H279.571C281.286 186.359 282.714 186.645 284.429 187.502C286.429 188.359 287.571 189.788 288.143 190.931C288.143 190.931 288.143 191.216 288.429 191.216C289.286 192.645 289.857 194.359 289.857 196.359C289.857 198.074 289.571 199.788 288.429 201.502L260.143 250.074C259.571 251.216 258.429 251.788 257 251.788C255.857 251.788 254.714 251.216 253.857 250.074L226.143 201.502C225.571 200.359 224.429 198.931 224.429 196.645C224.143 194.645 224.714 192.931 225.571 191.216C226.429 189.502 227.857 188.074 229.857 187.502C231.571 186.359 233.571 186.359 234.714 186.359ZM253.571 193.216H234.714C233.571 193.216 233 193.216 232.714 193.502C232.143 193.788 231.857 194.074 231.571 194.645C231.286 194.931 231.286 195.502 231.286 196.074C231.286 196.359 231.571 196.645 232.143 197.788L253.571 234.931V193.216ZM260.429 193.216V235.216L282.143 197.788C282.429 197.216 282.429 196.645 282.429 196.074C282.429 195.502 282.429 194.931 282.143 194.645C281.857 194.359 281.857 194.074 281.571 194.074L281.286 193.788C280.714 193.502 280.143 193.502 279.286 193.502H260.429V193.216Z" fill="#F6F4EB"/>
</g>
</g>
</g>
<defs>
<clipPath id="clip0_796_1680">
<rect width="339.43" height="295.27" fill="white"/>
</clipPath>
<clipPath id="clip1_796_1680">
<rect width="160" height="160" fill="white" transform="translate(177 133.5)"/>
</clipPath>
</defs>
</svg>
