<svg width="340" height="296" viewBox="0 0 340 296" fill="none" xmlns="http://www.w3.org/2000/svg">
<g clip-path="url(#clip0_796_1680)">
<path fill-rule="evenodd" clip-rule="evenodd" d="M62.15 1.45019L0.259998 131.45C0.0244886 131.934 -0.0501428 132.48 0.0470178 133.009C0.144178 133.538 0.408034 134.022 0.799998 134.39L167.95 294.56C168.425 295.016 169.057 295.27 169.715 295.27C170.373 295.27 171.005 295.016 171.48 294.56L338.63 134.4C339.022 134.032 339.286 133.548 339.383 133.019C339.48 132.49 339.406 131.944 339.17 131.46L277.28 1.46019C277.08 1.0236 276.759 0.653747 276.355 0.394842C275.95 0.135937 275.48 -0.00107099 275 0.000193524H64.45C63.9676 -0.0058081 63.4938 0.127899 63.0856 0.385186C62.6775 0.642473 62.3526 1.01235 62.15 1.45019Z" fill="#50AF95"/>
<path fill-rule="evenodd" clip-rule="evenodd" d="M191.19 144.8C189.99 144.89 183.79 145.26 169.96 145.26C158.96 145.26 151.15 144.93 148.41 144.8C105.9 142.93 74.17 135.53 74.17 126.67C74.17 117.81 105.9 110.42 148.41 108.52V137.43C151.19 137.63 159.15 138.1 170.15 138.1C183.35 138.1 189.96 137.55 191.15 137.44V108.54C233.57 110.43 265.23 117.83 265.23 126.67C265.23 135.51 233.58 142.91 191.15 144.79L191.19 144.8ZM191.19 105.55V79.6805H250.39V40.2305H89.21V79.6805H148.4V105.54C100.29 107.75 64.11 117.28 64.11 128.7C64.11 140.12 100.29 149.64 148.4 151.86V234.76H191.18V151.83C239.18 149.62 275.3 140.1 275.3 128.69C275.3 117.28 239.21 107.76 191.18 105.54L191.19 105.55Z" fill="white"/>
<g clip-path="url(#clip1_796_1680)">
<mask id="mask0_796_1680" style="mask-type:luminance" maskUnits="userSpaceOnUse" x="177" y="134" width="160" height="160">
<path d="M337 134H177V294H337V134Z" fill="white"/>
</mask>
<g mask="url(#mask0_796_1680)">
<path d="M257.034 133.842H257.164C301.303 133.842 337.099 168.71 337.099 211.706V216.041C337.099 259.037 301.303 293.905 257.164 293.905H257.034C212.894 293.905 177.099 259.037 177.099 216.041V211.706C177.099 168.71 212.894 133.842 257.034 133.842Z" fill="#232323"/>
<path d="M290.206 194.43C289.944 194.717 289.617 194.94 289.257 195.068C288.897 195.227 288.505 195.291 288.112 195.291H214.002C211.384 195.291 210.043 192.103 211.875 190.191L224.047 177.602C224.309 177.315 224.635 177.092 225.028 176.932C225.388 176.773 225.781 176.709 226.173 176.709H300.578C303.229 176.709 304.537 179.928 302.673 181.84L290.206 194.43ZM290.206 250.717C289.65 251.259 288.897 251.578 288.112 251.578H214.002C211.384 251.578 210.043 248.454 211.875 246.606L224.047 234.303C224.309 234.016 224.668 233.793 225.028 233.665C225.388 233.506 225.781 233.442 226.173 233.442H300.578C303.229 233.442 304.537 236.598 302.673 238.446L290.206 250.717ZM290.206 205.936C289.65 205.394 288.897 205.076 288.112 205.076H214.002C211.384 205.076 210.043 208.199 211.875 210.048L224.047 222.351C224.309 222.637 224.668 222.86 225.028 222.988C225.388 223.147 225.781 223.211 226.173 223.211H300.578C303.229 223.211 304.537 220.056 302.673 218.207L290.206 205.936Z" fill="url(#paint0_linear_796_1680)"/>
</g>
</g>
</g>
<defs>
<linearGradient id="paint0_linear_796_1680" x1="216.686" y1="252.512" x2="295.578" y2="173.662" gradientUnits="userSpaceOnUse">
<stop stop-color="#CF41E8"/>
<stop offset="1" stop-color="#10F2B0"/>
</linearGradient>
<clipPath id="clip0_796_1680">
<rect width="339.43" height="295.27" fill="white"/>
</clipPath>
<clipPath id="clip1_796_1680">
<rect width="160" height="160" fill="white" transform="translate(177 134)"/>
</clipPath>
</defs>
</svg>
