<svg width="202" height="147" viewBox="0 0 202 147" fill="none" xmlns="http://www.w3.org/2000/svg">
<path fill-rule="evenodd" clip-rule="evenodd" d="M187.736 123.783C183.731 134.942 170.629 142.837 149.379 144.822C106.88 148.792 47.8827 127.62 17.6053 97.5325C2.46665 82.4888 -2.62563 68.0646 1.37915 56.9051L13.3763 23.4746C17.3811 12.3152 30.4829 4.42032 51.7327 2.43525C94.2321 -1.53493 153.229 19.6373 183.507 49.7247C198.645 64.7684 203.738 79.1925 199.733 90.352L187.736 123.783Z" fill="url(#paint0_linear_701_2089)"/>
<path fill-rule="evenodd" clip-rule="evenodd" d="M92.7512 138.385L106.132 101.098L117.952 68.1623L146.36 89.5505L157.494 97.9432L140.503 145.287C125.531 145.498 109.04 142.992 92.7512 138.385Z" fill="#009393"/>
<g filter="url(#filter0_i_701_2089)">
<ellipse cx="50.0169" cy="50.0169" rx="50.0169" ry="50.0169" transform="matrix(-0.719555 -0.694435 -0.996918 0.0784486 192.622 87.1294)" fill="#004040"/>
</g>
<ellipse cx="71.4527" cy="71.4527" rx="71.4527" ry="71.4527" transform="matrix(-0.719555 -0.694436 -0.996918 0.0784486 229.729 99.4565)" stroke="url(#paint1_linear_701_2089)" stroke-width="5.42495"/>
<ellipse cx="51.9078" cy="51.9078" rx="51.9078" ry="51.9078" transform="matrix(-0.719555 -0.694436 -0.996918 0.0784486 196.184 87.4175)" stroke="url(#paint2_linear_701_2089)" stroke-width="5.42495"/>
<path fill-rule="evenodd" clip-rule="evenodd" d="M71.3063 35.7096L108.957 38.874C109.855 38.9495 110.885 39.449 111.658 40.184L130.577 58.1776C131.558 59.1108 131.909 60.214 131.432 60.8637L113.678 85.0413C113.103 85.8245 111.53 85.6923 110.149 84.7447L67.574 55.5315C66.4017 54.7271 65.7107 53.564 65.9064 52.7245L69.6657 36.6021C69.8122 35.9742 70.4334 35.6363 71.3063 35.7096ZM107.645 46.0874L109.875 50.8774L99.1499 49.976L100.696 53.2971C108.394 54.2851 114.724 56.2177 115.58 57.9684L117.276 61.6107C118.047 63.3543 113.075 64.337 105.707 64.0588L109.502 72.2092L102.381 71.6106L98.5856 63.4603C90.8877 62.4723 84.5575 60.5397 83.7021 58.789L82.0064 55.1468C81.2348 53.4031 86.2073 52.4204 93.5746 52.6986L92.0282 49.3775L81.3031 48.4761L79.0727 43.686L107.645 46.0874ZM100.981 61.2573C109.02 61.9329 115.165 61.265 116.043 59.7572C113.998 58.2442 108.443 56.7218 101.9 55.8819L103.519 59.3591C102.396 59.3167 101.218 59.2451 99.9966 59.1424C98.7747 59.0397 97.5701 58.9111 96.3973 58.7606L94.7782 55.2834C88.5156 55.0469 83.9835 55.7216 83.239 57.0002C85.6498 58.7844 92.9426 60.5817 100.981 61.2573Z" fill="#1C1C1C"/>
<path fill-rule="evenodd" clip-rule="evenodd" d="M74.7214 34.8757L112.372 38.04C113.27 38.1155 114.3 38.6151 115.073 39.35L133.992 57.3436C134.973 58.2768 135.324 59.38 134.847 60.0297L117.093 84.2073C116.518 84.9905 114.945 84.8583 113.564 83.9107L70.989 54.6975C69.8167 53.8931 69.1257 52.73 69.3215 51.8905L73.0808 35.7681C73.2272 35.1402 73.8485 34.8023 74.7214 34.8757ZM111.06 45.2534L113.29 50.0434L102.565 49.142L104.111 52.4631C111.809 53.4511 118.139 55.3838 118.995 57.1344L120.691 60.7767C121.462 62.5203 116.49 63.503 109.122 63.2248L112.917 71.3752L105.796 70.7767L102.001 62.6263C94.3028 61.6383 87.9726 59.7057 87.1171 57.955L85.4215 54.3128C84.6498 52.5691 89.6223 51.5864 96.9897 51.8646L95.4433 48.5435L84.7181 47.6421L82.4877 42.852L111.06 45.2534ZM104.396 60.4233C112.435 61.0989 118.58 60.431 119.458 58.9232C117.414 57.4102 111.858 55.8878 105.315 55.048L106.934 58.5251C105.811 58.4828 104.633 58.4111 103.412 58.3084C102.19 58.2057 100.985 58.0771 99.8123 57.9266L98.1932 54.4494C91.9306 54.213 87.3985 54.8876 86.6541 56.1662C89.0648 57.9504 96.3577 59.7477 104.396 60.4233Z" fill="#D3D3D3"/>
<defs>
<filter id="filter0_i_701_2089" x="45.27" y="21.3623" width="122.998" height="69.915" filterUnits="userSpaceOnUse" color-interpolation-filters="sRGB">
<feFlood flood-opacity="0" result="BackgroundImageFix"/>
<feBlend mode="normal" in="SourceGraphic" in2="BackgroundImageFix" result="shape"/>
<feColorMatrix in="SourceAlpha" type="matrix" values="0 0 0 0 0 0 0 0 0 0 0 0 0 0 0 0 0 0 127 0" result="hardAlpha"/>
<feOffset dy="5.42495"/>
<feComposite in2="hardAlpha" operator="arithmetic" k2="-1" k3="1"/>
<feColorMatrix type="matrix" values="0 0 0 0 0 0 0 0 0 0.320833 0 0 0 0 0.320833 0 0 0 1 0"/>
<feBlend mode="normal" in2="shape" result="effect1_innerShadow_701_2089"/>
</filter>
<linearGradient id="paint0_linear_701_2089" x1="65.0498" y1="2.58065" x2="122.019" y2="159.701" gradientUnits="userSpaceOnUse">
<stop stop-color="#00CCCC"/>
<stop offset="0.455" stop-color="#009393"/>
<stop offset="1" stop-color="#004242"/>
</linearGradient>
<linearGradient id="paint1_linear_701_2089" x1="112.895" y1="10.266" x2="-4.5256" y2="101.919" gradientUnits="userSpaceOnUse">
<stop stop-color="#00CCCC"/>
<stop offset="0.455" stop-color="#009393"/>
<stop offset="1" stop-color="#004242"/>
</linearGradient>
<linearGradient id="paint2_linear_701_2089" x1="82.0141" y1="7.45791" x2="-3.28769" y2="74.0405" gradientUnits="userSpaceOnUse">
<stop stop-color="#00CCCC"/>
<stop offset="0.455" stop-color="#009393"/>
<stop offset="1" stop-color="#004242"/>
</linearGradient>
</defs>
</svg>
